<svg width="64" height="64" viewBox="0 0 64 64" fill="none" xmlns="http://www.w3.org/2000/svg">
<rect x="7.5" y="10" width="5.5" height="5.5" fill="#333333"/>
<rect x="7.5" y="21" width="5.5" height="5.5" fill="#333333"/>
<rect x="7.5" y="15.5" width="5.5" height="5.5" fill="#333333"/>
<rect x="7.5" y="26.5" width="5.5" height="5.5" fill="#333333"/>
<rect x="7.5" y="37.5" width="5.5" height="5.5" fill="#333333"/>
<rect x="7.5" y="32" width="5.5" height="5.5" fill="#333333"/>
<rect x="29.5" y="48.5" width="5.5" height="5.5" fill="#333333"/>
<rect x="29.5" y="43" width="5.5" height="5.5" fill="#333333"/>
<rect x="40.5" y="48.5" width="5.5" height="5.5" fill="#333333"/>
<rect x="40.5" y="43" width="5.5" height="5.5" fill="#333333"/>
<rect x="18.5" y="48.5" width="5.5" height="5.5" fill="#333333"/>
<rect x="18.5" y="43" width="5.5" height="5.5" fill="#333333"/>
<rect x="7.5" y="48.5" width="5.5" height="5.5" fill="#333333"/>
<rect x="7.5" y="43" width="5.5" height="5.5" fill="#333333"/>
<rect x="13" y="26.5" width="5.5" height="5.5" fill="#333333"/>
<rect x="13" y="37.5" width="5.5" height="5.5" fill="#333333"/>
<rect x="13" y="32" width="5.5" height="5.5" fill="#333333"/>
<rect x="18.5" y="26.5" width="5.5" height="5.5" fill="#333333"/>
<rect x="18.5" y="37.5" width="5.5" height="5.5" fill="#333333"/>
<rect x="18.5" y="32" width="5.5" height="5.5" fill="#333333"/>
<rect x="24" y="26.5" width="5.5" height="5.5" fill="#333333"/>
<rect x="24" y="37.5" width="5.5" height="5.5" fill="#333333"/>
<rect x="24" y="32" width="5.5" height="5.5" fill="#333333"/>
<rect x="29.5" y="26.5" width="5.5" height="5.5" fill="#333333"/>
<rect x="29.5" y="37.5" width="5.5" height="5.5" fill="#333333"/>
<rect x="29.5" y="32" width="5.5" height="5.5" fill="#333333"/>
<rect x="35" y="37.5" width="5.5" height="5.5" fill="#333333"/>
<rect x="35" y="32" width="5.5" height="5.5" fill="#333333"/>
<rect x="40.5" y="26.5" width="5.5" height="5.5" fill="#333333"/>
<rect x="40.5" y="37.5" width="5.5" height="5.5" fill="#333333"/>
<rect x="40.5" y="32" width="5.5" height="5.5" fill="#333333"/>
<rect x="35" y="21" width="5.5" height="5.5" fill="#333333"/>
<rect x="40.5" y="21" width="5.5" height="5.5" fill="#333333"/>
<rect x="46" y="21" width="5.5" height="5.5" fill="#333333"/>
<rect x="46" y="37.5" width="5.5" height="5.5" fill="#333333"/>
<rect x="46" y="32" width="5.5" height="5.5" fill="#333333"/>
<rect x="13" y="10" width="5.5" height="5.5" fill="#333333"/>
<rect x="51.5" y="32" width="5.5" height="5.5" fill="#333333"/>
<rect x="51.5" y="26.5" width="5.5" height="5.5" fill="#333333"/>
<rect x="51.5" y="21" width="5.5" height="5.5" fill="#333333"/>
<rect x="46" y="10" width="5.5" height="5.5" fill="#333333"/>
<rect x="46" y="15.5" width="5.5" height="5.5" fill="#333333"/>
<rect x="40.5" y="15.5" width="5.5" height="5.5" fill="#333333"/>
<rect x="35" y="15.5" width="5.5" height="5.5" fill="#333333"/>
<rect x="29.5" y="10" width="5.5" height="5.5" fill="#333333"/>
<rect x="29.5" y="15.5" width="5.5" height="5.5" fill="#333333"/>
<rect x="29.5" y="21" width="5.5" height="5.5" fill="#333333"/>
<rect x="24" y="21" width="5.5" height="5.5" fill="#333333"/>
</svg>
