<svg width="62" height="21" viewBox="0 0 62 21" fill="none" xmlns="http://www.w3.org/2000/svg">
<rect width="62" height="21" rx="2" fill="#D2E3FA"/>
<path d="M22.5332 6.46875L24.7246 12.6562L26.9043 6.46875H29.2129V15H27.4492V12.668L27.625 8.64258L25.3223 15H24.1152L21.8184 8.64844L21.9941 12.668V15H20.2363V6.46875H22.5332ZM34.3105 15C34.2324 14.8477 34.1758 14.6582 34.1406 14.4316C33.7305 14.8887 33.1973 15.1172 32.541 15.1172C31.9199 15.1172 31.4043 14.9375 30.9941 14.5781C30.5879 14.2188 30.3848 13.7656 30.3848 13.2188C30.3848 12.5469 30.6328 12.0312 31.1289 11.6719C31.6289 11.3125 32.3496 11.1309 33.291 11.127H34.0703V10.7637C34.0703 10.4707 33.9941 10.2363 33.8418 10.0605C33.6934 9.88477 33.457 9.79688 33.1328 9.79688C32.8477 9.79688 32.623 9.86523 32.459 10.002C32.2988 10.1387 32.2188 10.3262 32.2188 10.5645H30.5254C30.5254 10.1973 30.6387 9.85742 30.8652 9.54492C31.0918 9.23242 31.4121 8.98828 31.8262 8.8125C32.2402 8.63281 32.7051 8.54297 33.2207 8.54297C34.002 8.54297 34.6211 8.74023 35.0781 9.13477C35.5391 9.52539 35.7695 10.0762 35.7695 10.7871V13.5352C35.7734 14.1367 35.8574 14.5918 36.0215 14.9004V15H34.3105ZM32.9102 13.8223C33.1602 13.8223 33.3906 13.7676 33.6016 13.6582C33.8125 13.5449 33.9688 13.3945 34.0703 13.207V12.1172H33.4375C32.5898 12.1172 32.1387 12.4102 32.084 12.9961L32.0781 13.0957C32.0781 13.3066 32.1523 13.4805 32.3008 13.6172C32.4492 13.7539 32.6523 13.8223 32.9102 13.8223ZM39.4844 10.5527L40.5508 8.66016H42.3613L40.5566 11.7656L42.4375 15H40.6211L39.4902 13.0078L38.3652 15H36.543L38.4238 11.7656L36.625 8.66016H38.4414L39.4844 10.5527Z" fill="#2F80ED"/>
</svg>
